<svg width="32" height="32" viewBox="0 0 32 32" fill="none" xmlns="http://www.w3.org/2000/svg">
<circle cx="16" cy="16" r="16" fill="#007FFF"/>
<path d="M8.46508 17.57L8.63508 19H3.75508V12.2H5.57508V17.57H8.46508ZM12.8163 19H10.9963V16.32L8.83633 12.54L10.5763 12.06L11.8963 14.65L13.3063 12.2H15.1763L12.8163 16.34V19ZM19.0893 19.14C18.3693 19.14 17.746 18.9833 17.2193 18.67C16.6926 18.3567 16.286 17.9333 15.9993 17.4C15.7193 16.8667 15.5793 16.2767 15.5793 15.63C15.5793 14.93 15.7293 14.3133 16.0293 13.78C16.3293 13.24 16.7426 12.82 17.2693 12.52C17.8026 12.2133 18.4093 12.06 19.0893 12.06C19.8293 12.06 20.4593 12.2167 20.9793 12.53C21.506 12.8433 21.9093 13.2633 22.1893 13.79C22.4693 14.3167 22.6093 14.9067 22.6093 15.56C22.6093 16.26 22.4593 16.88 22.1593 17.42C21.866 17.96 21.4526 18.3833 20.9193 18.69C20.3926 18.99 19.7826 19.14 19.0893 19.14ZM19.0793 17.62C19.3926 17.62 19.6726 17.5433 19.9193 17.39C20.1726 17.2367 20.3726 17.0067 20.5193 16.7C20.666 16.3933 20.7393 16.0133 20.7393 15.56C20.7393 15.18 20.6726 14.8433 20.5393 14.55C20.4126 14.25 20.226 14.0133 19.9793 13.84C19.7393 13.6667 19.4493 13.58 19.1093 13.58C18.8093 13.58 18.5326 13.6667 18.2793 13.84C18.026 14.0067 17.8226 14.2433 17.6693 14.55C17.5226 14.85 17.4493 15.2067 17.4493 15.62C17.4493 16 17.5126 16.3433 17.6393 16.65C17.7726 16.95 17.9593 17.1867 18.1993 17.36C18.446 17.5333 18.7393 17.62 19.0793 17.62ZM26.5063 13.63H25.5263V15.43H26.5263C26.7129 15.43 26.8763 15.3933 27.0163 15.32C27.1629 15.24 27.2763 15.13 27.3563 14.99C27.4429 14.85 27.4863 14.6933 27.4863 14.52C27.4863 14.32 27.4463 14.1533 27.3663 14.02C27.2863 13.8867 27.1729 13.79 27.0263 13.73C26.8863 13.6633 26.7129 13.63 26.5063 13.63ZM23.7063 12.2H26.5663C27.0729 12.2 27.5363 12.28 27.9562 12.44C28.3829 12.6 28.7229 12.85 28.9763 13.19C29.2363 13.53 29.3663 13.9733 29.3663 14.52C29.3663 14.9333 29.2796 15.29 29.1063 15.59C28.9396 15.89 28.7196 16.1333 28.4463 16.32L29.9463 19H27.8363L26.7363 16.86C26.6363 16.86 26.5363 16.86 26.4363 16.86C26.3363 16.86 26.2363 16.86 26.1363 16.86H25.5263V19H23.7063V12.2Z" fill="white"/>
</svg>
