<svg width="32" height="32" viewBox="0 0 32 32" fill="none" xmlns="http://www.w3.org/2000/svg">
<circle cx="16" cy="16" r="16" fill="#007FFF"/>
<path d="M10.09 18.998L10.328 21H3.49598V11.48H6.04398V18.998H10.09ZM16.1817 21H13.6337V17.248L10.6097 11.956L13.0457 11.284L14.8937 14.91L16.8677 11.48H19.4857L16.1817 17.276V21ZM24.6699 13.482H23.2979V16.002H24.6979C24.9592 16.002 25.1879 15.9507 25.3839 15.848C25.5892 15.736 25.7479 15.582 25.8599 15.386C25.9812 15.19 26.0419 14.9707 26.0419 14.728C26.0419 14.448 25.9859 14.2147 25.8739 14.028C25.7619 13.8413 25.6032 13.706 25.3979 13.622C25.2019 13.5287 24.9592 13.482 24.6699 13.482ZM20.7499 11.48H24.7539C25.4632 11.48 26.1119 11.592 26.6999 11.816C27.2972 12.04 27.7732 12.39 28.1279 12.866C28.4919 13.342 28.6739 13.9627 28.6739 14.728C28.6739 15.3067 28.5525 15.806 28.3099 16.226C28.0765 16.646 27.7685 16.9867 27.3859 17.248L29.4859 21H26.5319L24.9919 18.004C24.8519 18.004 24.7119 18.004 24.5719 18.004C24.4319 18.004 24.2919 18.004 24.1519 18.004H23.2979V21H20.7499V11.48Z" fill="white"/>
</svg>
