<svg width="60" height="32" viewBox="0 0 60 32" fill="none" xmlns="http://www.w3.org/2000/svg">
<circle cx="30" cy="16" r="16" fill="#007FFF"/>
<path d="M24.09 18.998L24.328 21H17.496V11.48H20.044V18.998H24.09ZM30.1817 21H27.6337V17.248L24.6097 11.956L27.0457 11.284L28.8937 14.91L30.8677 11.48H33.4857L30.1817 17.276V21ZM38.6699 13.482H37.2979V16.002H38.6979C38.9592 16.002 39.1879 15.9507 39.3839 15.848C39.5892 15.736 39.7479 15.582 39.8599 15.386C39.9812 15.19 40.0419 14.9707 40.0419 14.728C40.0419 14.448 39.9859 14.2147 39.8739 14.028C39.7619 13.8413 39.6032 13.706 39.3979 13.622C39.2019 13.5287 38.9592 13.482 38.6699 13.482ZM34.7499 11.48H38.7539C39.4632 11.48 40.1119 11.592 40.6999 11.816C41.2972 12.04 41.7732 12.39 42.1279 12.866C42.4919 13.342 42.6739 13.9627 42.6739 14.728C42.6739 15.3067 42.5525 15.806 42.3099 16.226C42.0765 16.646 41.7685 16.9867 41.3859 17.248L43.4859 21H40.5319L38.9919 18.004C38.8519 18.004 38.7119 18.004 38.5719 18.004C38.4319 18.004 38.2919 18.004 38.1519 18.004H37.2979V21H34.7499V11.48Z" fill="white"/>
</svg>
